<svg xmlns="http://www.w3.org/2000/svg" version="1.1" xmlns:xlink="http://www.w3.org/1999/xlink" xmlns:svgjs="http://svgjs.com/svgjs" width="1920" height="1080" preserveAspectRatio="none" viewBox="0 0 1920 1080">
    <g mask="url(&quot;#SvgjsMask1587&quot;)" fill="none">
        <rect width="1920" height="1080" x="0" y="0" fill="url(#SvgjsLinearGradient1588)"></rect>
        <path d="M403.57 712.32 a287.3 287.3 0 1 0 574.6 0 a287.3 287.3 0 1 0 -574.6 0z" fill="rgba(203, 203, 72, 0.17)" class="triangle-float1"></path>
        <path d="M1096.77 589.98 a325.78 325.78 0 1 0 651.56 0 a325.78 325.78 0 1 0 -651.56 0z" fill="rgba(203, 203, 72, 0.17)" class="triangle-float2"></path>
        <path d="M728.75 451.46 a186.1 186.1 0 1 0 372.2 0 a186.1 186.1 0 1 0 -372.2 0z" fill="rgba(203, 203, 72, 0.17)" class="triangle-float3"></path>
        <path d="M1172.91 267.25 a241.96 241.96 0 1 0 483.92 0 a241.96 241.96 0 1 0 -483.92 0z" fill="rgba(203, 203, 72, 0.17)" class="triangle-float3"></path>
        <path d="M1645.15 1002.75 a256.58 256.58 0 1 0 513.16 0 a256.58 256.58 0 1 0 -513.16 0z" fill="rgba(203, 203, 72, 0.17)" class="triangle-float2"></path>
    </g>
    <defs>
        <mask id="SvgjsMask1587">
            <rect width="1920" height="1080" fill="#ffffff"></rect>
        </mask>
        <linearGradient x1="10.94%" y1="-19.44%" x2="89.06%" y2="119.44%" gradientUnits="userSpaceOnUse" id="SvgjsLinearGradient1588">
            <stop stop-color="rgba(20, 112, 202, 1)" offset="0"></stop>
            <stop stop-color="rgba(95, 77, 188, 1)" offset="0.29"></stop>
            <stop stop-color="rgba(243, 89, 22, 1)" offset="0.81"></stop>
            <stop stop-color="rgba(254, 209, 72, 1)" offset="1"></stop>
        </linearGradient>
        <style>
            @keyframes float1 {
                0%{transform: translate(0, 0)}
                50%{transform: translate(-10px, 0)}
                100%{transform: translate(0, 0)}
            }

            .triangle-float1 {
                animation: float1 5s infinite;
            }

            @keyframes float2 {
                0%{transform: translate(0, 0)}
                50%{transform: translate(-5px, -5px)}
                100%{transform: translate(0, 0)}
            }

            .triangle-float2 {
                animation: float2 4s infinite;
            }

            @keyframes float3 {
                0%{transform: translate(0, 0)}
                50%{transform: translate(0, -10px)}
                100%{transform: translate(0, 0)}
            }

            .triangle-float3 {
                animation: float3 6s infinite;
            }
        </style>
    </defs>
</svg>