<svg xmlns="http://www.w3.org/2000/svg" version="1.1" xmlns:xlink="http://www.w3.org/1999/xlink" xmlns:svgjs="http://svgjs.com/svgjs" width="1366" height="768" preserveAspectRatio="none" viewBox="0 0 1366 768"><g mask="url(&quot;#SvgjsMask1815&quot;)" fill="none"><rect width="1366" height="768" x="0" y="0" fill="url(#SvgjsLinearGradient1816)"></rect><path d="M504.18 392.66 a204.61 204.61 0 1 0 409.22 0 a204.61 204.61 0 1 0 -409.22 0z" fill="rgba(203, 203, 72, 0.17)" class="triangle-float3"></path><path d="M373.36 186.22 a246.79 246.79 0 1 0 493.58 0 a246.79 246.79 0 1 0 -493.58 0z" fill="rgba(203, 203, 72, 0.17)" class="triangle-float1"></path><path d="M770.74 574.93 a250.1 250.1 0 1 0 500.2 0 a250.1 250.1 0 1 0 -500.2 0z" fill="rgba(203, 203, 72, 0.17)" class="triangle-float2"></path><path d="M317.43 202.51 a175.52 175.52 0 1 0 351.04 0 a175.52 175.52 0 1 0 -351.04 0z" fill="rgba(203, 203, 72, 0.17)" class="triangle-float1"></path><path d="M53.82 609.07 a172.26 172.26 0 1 0 344.52 0 a172.26 172.26 0 1 0 -344.52 0z" fill="rgba(203, 203, 72, 0.17)" class="triangle-float1"></path></g><defs><mask id="SvgjsMask1815"><rect width="1366" height="768" fill="#ffffff"></rect></mask><linearGradient x1="10.94%" y1="-19.47%" x2="89.06%" y2="119.47%" gradientUnits="userSpaceOnUse" id="SvgjsLinearGradient1816"><stop stop-color="rgba(20, 112, 202, 1)" offset="0"></stop><stop stop-color="rgba(95, 77, 188, 1)" offset="0.29"></stop><stop stop-color="rgba(243, 89, 22, 1)" offset="0.81"></stop><stop stop-color="rgba(254, 209, 72, 1)" offset="1"></stop></linearGradient></defs></svg>