<svg xmlns="http://www.w3.org/2000/svg" version="1.1" xmlns:xlink="http://www.w3.org/1999/xlink" xmlns:svgjs="http://svgjs.com/svgjs" width="768" height="650" preserveAspectRatio="none" viewBox="0 0 768 650"><g mask="url(&quot;#SvgjsMask1801&quot;)" fill="none"><rect width="768" height="650" x="0" y="0" fill="url(#SvgjsLinearGradient1802)"></rect><path d="M333.78 326.73 a196.09 196.09 0 1 0 392.18 0 a196.09 196.09 0 1 0 -392.18 0z" fill="rgba(203, 203, 72, 0.17)" class="triangle-float2"></path><path d="M-40.75 244.38 a170.99 170.99 0 1 0 341.98 0 a170.99 170.99 0 1 0 -341.98 0z" fill="rgba(203, 203, 72, 0.17)" class="triangle-float3"></path><path d="M506.18 313.16 a144.7 144.7 0 1 0 289.4 0 a144.7 144.7 0 1 0 -289.4 0z" fill="rgba(203, 203, 72, 0.17)" class="triangle-float1"></path><path d="M172.53 605.57 a199.84 199.84 0 1 0 399.68 0 a199.84 199.84 0 1 0 -399.68 0z" fill="rgba(203, 203, 72, 0.17)" class="triangle-float1"></path><path d="M210.91 86.94 a151.8 151.8 0 1 0 303.6 0 a151.8 151.8 0 1 0 -303.6 0z" fill="rgba(203, 203, 72, 0.17)" class="triangle-float2"></path></g><defs><mask id="SvgjsMask1801"><rect width="768" height="650" fill="#ffffff"></rect></mask><linearGradient x1="3.84%" y1="-4.54%" x2="96.16%" y2="104.54%" gradientUnits="userSpaceOnUse" id="SvgjsLinearGradient1802"><stop stop-color="rgba(20, 112, 202, 1)" offset="0"></stop><stop stop-color="rgba(95, 77, 188, 1)" offset="0.29"></stop><stop stop-color="rgba(243, 89, 22, 1)" offset="0.81"></stop><stop stop-color="rgba(254, 209, 72, 1)" offset="1"></stop></linearGradient></defs></svg>