<svg xmlns="http://www.w3.org/2000/svg" version="1.1" xmlns:xlink="http://www.w3.org/1999/xlink" xmlns:svgjs="http://svgjs.com/svgjs" width="768" height="650" preserveAspectRatio="none" viewBox="0 0 768 650">
    <g mask="url(&quot;#SvgjsMask1625&quot;)" fill="none">
        <rect width="768" height="650" x="0" y="0" fill="url(#SvgjsLinearGradient1626)"></rect>
        <path d="M-6.77 632.2 a186.01 186.01 0 1 0 372.02 0 a186.01 186.01 0 1 0 -372.02 0z" fill="rgba(203, 203, 72, 0.17)" class="triangle-float2"></path>
        <path d="M527.41 181.11 a171.7 171.7 0 1 0 343.4 0 a171.7 171.7 0 1 0 -343.4 0z" fill="rgba(203, 203, 72, 0.17)" class="triangle-float2"></path>
        <path d="M265.65 245.84 a186.06 186.06 0 1 0 372.12 0 a186.06 186.06 0 1 0 -372.12 0z" fill="rgba(203, 203, 72, 0.17)" class="triangle-float1"></path>
        <path d="M431.82 320.43 a172.52 172.52 0 1 0 345.04 0 a172.52 172.52 0 1 0 -345.04 0z" fill="rgba(203, 203, 72, 0.17)" class="triangle-float2"></path>
        <path d="M154.08 501.07 a134.39 134.39 0 1 0 268.78 0 a134.39 134.39 0 1 0 -268.78 0z" fill="rgba(203, 203, 72, 0.17)" class="triangle-float2"></path>
    </g>
    <defs>
        <mask id="SvgjsMask1625">
            <rect width="768" height="650" fill="#ffffff"></rect>
        </mask>
        <linearGradient x1="3.84%" y1="-4.54%" x2="96.16%" y2="104.54%" gradientUnits="userSpaceOnUse" id="SvgjsLinearGradient1626">
            <stop stop-color="rgba(20, 112, 202, 1)" offset="0"></stop>
            <stop stop-color="rgba(95, 77, 188, 1)" offset="0.29"></stop>
            <stop stop-color="rgba(243, 89, 22, 1)" offset="0.81"></stop>
            <stop stop-color="rgba(254, 209, 72, 1)" offset="1"></stop>
        </linearGradient>
    </defs>
</svg>