<svg xmlns="http://www.w3.org/2000/svg" version="1.1" xmlns:xlink="http://www.w3.org/1999/xlink" xmlns:svgjs="http://svgjs.com/svgjs" width="1366" height="768" preserveAspectRatio="none" viewBox="0 0 1366 768">
    <g mask="url(&quot;#SvgjsMask1141&quot;)" fill="none">
        <rect width="1366" height="768" x="0" y="0" fill="url(#SvgjsLinearGradient1142)"></rect>
        <path d="M2.89 685.73 a162.38 162.38 0 1 0 324.76 0 a162.38 162.38 0 1 0 -324.76 0z" fill="rgba(214, 210, 83, 0.17)" class="triangle-float2"></path>
        <path d="M32.5 282.76 a199.27 199.27 0 1 0 398.54 0 a199.27 199.27 0 1 0 -398.54 0z" fill="rgba(214, 210, 83, 0.17)" class="triangle-float2"></path>
        <path d="M1132.85 629.77 a155.93 155.93 0 1 0 311.86 0 a155.93 155.93 0 1 0 -311.86 0z" fill="rgba(214, 210, 83, 0.17)" class="triangle-float1"></path>
        <path d="M784.22 84.64 a170.86 170.86 0 1 0 341.72 0 a170.86 170.86 0 1 0 -341.72 0z" fill="rgba(214, 210, 83, 0.17)" class="triangle-float3"></path>
        <path d="M957.34 384.74 a131.45 131.45 0 1 0 262.9 0 a131.45 131.45 0 1 0 -262.9 0z" fill="rgba(214, 210, 83, 0.17)" class="triangle-float3"></path>
    </g>
    <defs>
        <mask id="SvgjsMask1141">
            <rect width="1366" height="768" fill="#ffffff"></rect>
        </mask>
        <linearGradient x1="10.94%" y1="-19.47%" x2="89.06%" y2="119.47%" gradientUnits="userSpaceOnUse" id="SvgjsLinearGradient1142">
            <stop stop-color="rgba(20, 112, 202, 1)" offset="0"></stop>
            <stop stop-color="rgba(95, 77, 188, 1)" offset="0.29"></stop>
            <stop stop-color="rgba(243, 89, 22, 1)" offset="0.81"></stop>
            <stop stop-color="rgba(254, 209, 72, 1)" offset="1"></stop>
        </linearGradient>
        <style>
            @keyframes float1 {
                0%{transform: translate(0, 0)}
                50%{transform: translate(-10px, 0)}
                100%{transform: translate(0, 0)}
            }

            .triangle-float1 {
                animation: float1 5s infinite;
            }

            @keyframes float2 {
                0%{transform: translate(0, 0)}
                50%{transform: translate(-5px, -5px)}
                100%{transform: translate(0, 0)}
            }

            .triangle-float2 {
                animation: float2 4s infinite;
            }

            @keyframes float3 {
                0%{transform: translate(0, 0)}
                50%{transform: translate(0, -10px)}
                100%{transform: translate(0, 0)}
            }

            .triangle-float3 {
                animation: float3 6s infinite;
            }
        </style>
    </defs>
</svg>