<svg xmlns="http://www.w3.org/2000/svg" version="1.1" xmlns:xlink="http://www.w3.org/1999/xlink" xmlns:svgjs="http://svgjs.com/svgjs" width="480" height="800" preserveAspectRatio="none" viewBox="0 0 480 800">
    <g mask="url(&quot;#SvgjsMask1613&quot;)" fill="none">
        <rect width="480" height="800" x="0" y="0" fill="url(#SvgjsLinearGradient1614)"></rect>
        <path d="M-68.14 360.31 a151.26 151.26 0 1 0 302.52 0 a151.26 151.26 0 1 0 -302.52 0z" fill="rgba(203, 203, 72, 0.17)" class="triangle-float3"></path>
        <path d="M242.71 26.47 a92.92 92.92 0 1 0 185.84 0 a92.92 92.92 0 1 0 -185.84 0z" fill="rgba(203, 203, 72, 0.17)" class="triangle-float1"></path>
        <path d="M-44.82 563.52 a104.21 104.21 0 1 0 208.42 0 a104.21 104.21 0 1 0 -208.42 0z" fill="rgba(203, 203, 72, 0.17)" class="triangle-float3"></path>
        <path d="M155.54 122.95 a122.99 122.99 0 1 0 245.98 0 a122.99 122.99 0 1 0 -245.98 0z" fill="rgba(203, 203, 72, 0.17)" class="triangle-float3"></path>
        <path d="M243.25 654.68 a92.21 92.21 0 1 0 184.42 0 a92.21 92.21 0 1 0 -184.42 0z" fill="rgba(203, 203, 72, 0.17)" class="triangle-float3"></path>
    </g>
    <defs>
        <mask id="SvgjsMask1613">
            <rect width="480" height="800" fill="#ffffff"></rect>
        </mask>
        <linearGradient x1="-16.67%" y1="10%" x2="116.67%" y2="90%" gradientUnits="userSpaceOnUse" id="SvgjsLinearGradient1614">
            <stop stop-color="rgba(20, 112, 202, 1)" offset="0"></stop>
            <stop stop-color="rgba(95, 77, 188, 1)" offset="0.29"></stop>
            <stop stop-color="rgba(243, 89, 22, 1)" offset="0.81"></stop>
            <stop stop-color="rgba(254, 209, 72, 1)" offset="1"></stop>
        </linearGradient>
    </defs>
</svg>