<svg xmlns="http://www.w3.org/2000/svg" version="1.1" xmlns:xlink="http://www.w3.org/1999/xlink" xmlns:svgjs="http://svgjs.com/svgjs" width="480" height="800" preserveAspectRatio="none" viewBox="0 0 480 800"><g mask="url(&quot;#SvgjsMask1789&quot;)" fill="none"><rect width="480" height="800" x="0" y="0" fill="url(#SvgjsLinearGradient1790)"></rect><path d="M263.99 354.14 a127.01 127.01 0 1 0 254.02 0 a127.01 127.01 0 1 0 -254.02 0z" fill="rgba(203, 203, 72, 0.17)" class="triangle-float3"></path><path d="M248.11 583.24 a145.42 145.42 0 1 0 290.84 0 a145.42 145.42 0 1 0 -290.84 0z" fill="rgba(203, 203, 72, 0.17)" class="triangle-float2"></path><path d="M190.83 220.62 a124.98 124.98 0 1 0 249.96 0 a124.98 124.98 0 1 0 -249.96 0z" fill="rgba(203, 203, 72, 0.17)" class="triangle-float2"></path><path d="M101.58 619.05 a138 138 0 1 0 276 0 a138 138 0 1 0 -276 0z" fill="rgba(203, 203, 72, 0.17)" class="triangle-float1"></path><path d="M-9.28 219.08 a107.61 107.61 0 1 0 215.22 0 a107.61 107.61 0 1 0 -215.22 0z" fill="rgba(203, 203, 72, 0.17)" class="triangle-float2"></path></g><defs><mask id="SvgjsMask1789"><rect width="480" height="800" fill="#ffffff"></rect></mask><linearGradient x1="-16.67%" y1="10%" x2="116.67%" y2="90%" gradientUnits="userSpaceOnUse" id="SvgjsLinearGradient1790"><stop stop-color="rgba(20, 112, 202, 1)" offset="0"></stop><stop stop-color="rgba(95, 77, 188, 1)" offset="0.29"></stop><stop stop-color="rgba(243, 89, 22, 1)" offset="0.81"></stop><stop stop-color="rgba(254, 209, 72, 1)" offset="1"></stop></linearGradient></defs></svg>