<svg xmlns="http://www.w3.org/2000/svg" version="1.1" xmlns:xlink="http://www.w3.org/1999/xlink" xmlns:svgjs="http://svgjs.com/svgjs" width="480" height="800" preserveAspectRatio="none" viewBox="0 0 480 800">
    <g mask="url(&quot;#SvgjsMask1487&quot;)" fill="none">
        <rect width="480" height="800" x="0" y="0" fill="url(#SvgjsLinearGradient1488)"></rect>
        <path d="M-38.84 152.18 a84.44 84.44 0 1 0 168.88 0 a84.44 84.44 0 1 0 -168.88 0z" fill="rgba(203, 203, 72, 0.17)" class="triangle-float3"></path>
        <path d="M178 561.66 a152.14 152.14 0 1 0 304.28 0 a152.14 152.14 0 1 0 -304.28 0z" fill="rgba(203, 203, 72, 0.17)" class="triangle-float3"></path>
        <path d="M-77.93 22.34 a141.14 141.14 0 1 0 282.28 0 a141.14 141.14 0 1 0 -282.28 0z" fill="rgba(203, 203, 72, 0.17)" class="triangle-float3"></path>
        <path d="M230.53 342.54 a89.78 89.78 0 1 0 179.56 0 a89.78 89.78 0 1 0 -179.56 0z" fill="rgba(203, 203, 72, 0.17)" class="triangle-float1"></path>
        <path d="M-71.95 739.13 a88.9 88.9 0 1 0 177.8 0 a88.9 88.9 0 1 0 -177.8 0z" fill="rgba(203, 203, 72, 0.17)" class="triangle-float2"></path>
    </g>
    <defs>
        <mask id="SvgjsMask1487">
            <rect width="480" height="800" fill="#ffffff"></rect>
        </mask>
        <linearGradient x1="-16.67%" y1="10%" x2="116.67%" y2="90%" gradientUnits="userSpaceOnUse" id="SvgjsLinearGradient1488">
            <stop stop-color="rgba(20, 112, 202, 1)" offset="0"></stop>
            <stop stop-color="rgba(95, 77, 188, 1)" offset="0.29"></stop>
            <stop stop-color="rgba(243, 89, 22, 1)" offset="0.81"></stop>
            <stop stop-color="rgba(254, 209, 72, 1)" offset="1"></stop>
        </linearGradient>
        <style>
            @keyframes float1 {
                0%{transform: translate(0, 0)}
                50%{transform: translate(-10px, 0)}
                100%{transform: translate(0, 0)}
            }

            .triangle-float1 {
                animation: float1 5s infinite;
            }

            @keyframes float2 {
                0%{transform: translate(0, 0)}
                50%{transform: translate(-5px, -5px)}
                100%{transform: translate(0, 0)}
            }

            .triangle-float2 {
                animation: float2 4s infinite;
            }

            @keyframes float3 {
                0%{transform: translate(0, 0)}
                50%{transform: translate(0, -10px)}
                100%{transform: translate(0, 0)}
            }

            .triangle-float3 {
                animation: float3 6s infinite;
            }
        </style>
    </defs>
</svg>