<svg xmlns="http://www.w3.org/2000/svg" version="1.1" xmlns:xlink="http://www.w3.org/1999/xlink" xmlns:svgjs="http://svgjs.com/svgjs" width="365" height="670" preserveAspectRatio="none" viewBox="0 0 365 670"><g mask="url(&quot;#SvgjsMask1673&quot;)" fill="none"><rect width="365" height="670" x="0" y="0" fill="url(#SvgjsLinearGradient1674)"></rect><path d="M-96.23 631.87 a97.07 97.07 0 1 0 194.14 0 a97.07 97.07 0 1 0 -194.14 0z" fill="rgba(203, 203, 72, 0.17)" class="triangle-float1"></path><path d="M132.75 433.63 a90.49 90.49 0 1 0 180.98 0 a90.49 90.49 0 1 0 -180.98 0z" fill="rgba(203, 203, 72, 0.17)" class="triangle-float1"></path><path d="M215.94 141.96 a106.95 106.95 0 1 0 213.9 0 a106.95 106.95 0 1 0 -213.9 0z" fill="rgba(203, 203, 72, 0.17)" class="triangle-float3"></path><path d="M257.11 214.4 a66.44 66.44 0 1 0 132.88 0 a66.44 66.44 0 1 0 -132.88 0z" fill="rgba(203, 203, 72, 0.17)" class="triangle-float1"></path><path d="M-74.44 108.16 a116.4 116.4 0 1 0 232.8 0 a116.4 116.4 0 1 0 -232.8 0z" fill="rgba(203, 203, 72, 0.17)" class="triangle-float1"></path></g><defs><mask id="SvgjsMask1673"><rect width="365" height="670" fill="#ffffff"></rect></mask><linearGradient x1="-20.89%" y1="11.38%" x2="120.89%" y2="88.62%" gradientUnits="userSpaceOnUse" id="SvgjsLinearGradient1674"><stop stop-color="rgba(20, 112, 202, 1)" offset="0"></stop><stop stop-color="rgba(95, 77, 188, 1)" offset="0.29"></stop><stop stop-color="rgba(243, 89, 22, 1)" offset="0.81"></stop><stop stop-color="rgba(254, 209, 72, 1)" offset="1"></stop></linearGradient></defs></svg>