<svg xmlns="http://www.w3.org/2000/svg" version="1.1" xmlns:xlink="http://www.w3.org/1999/xlink" xmlns:svgjs="http://svgjs.com/svgjs" width="365" height="670" preserveAspectRatio="none" viewBox="0 0 365 670">
    <g mask="url(&quot;#SvgjsMask1601&quot;)" fill="none">
        <rect width="365" height="670" x="0" y="0" fill="url(#SvgjsLinearGradient1602)"></rect>
        <path d="M47.59 442.94 a72.95 72.95 0 1 0 145.9 0 a72.95 72.95 0 1 0 -145.9 0z" fill="rgba(203, 203, 72, 0.17)" class="triangle-float2"></path>
        <path d="M234.51 334.1 a78.58 78.58 0 1 0 157.16 0 a78.58 78.58 0 1 0 -157.16 0z" fill="rgba(203, 203, 72, 0.17)" class="triangle-float3"></path>
        <path d="M241.63 3.29 a115.4 115.4 0 1 0 230.8 0 a115.4 115.4 0 1 0 -230.8 0z" fill="rgba(203, 203, 72, 0.17)" class="triangle-float3"></path>
        <path d="M-105.68 187.77 a107.16 107.16 0 1 0 214.32 0 a107.16 107.16 0 1 0 -214.32 0z" fill="rgba(203, 203, 72, 0.17)" class="triangle-float3"></path>
        <path d="M-26.59 107.48 a83.67 83.67 0 1 0 167.34 0 a83.67 83.67 0 1 0 -167.34 0z" fill="rgba(203, 203, 72, 0.17)" class="triangle-float3"></path>
    </g>
    <defs>
        <mask id="SvgjsMask1601">
            <rect width="365" height="670" fill="#ffffff"></rect>
        </mask>
        <linearGradient x1="-20.89%" y1="11.38%" x2="120.89%" y2="88.62%" gradientUnits="userSpaceOnUse" id="SvgjsLinearGradient1602">
            <stop stop-color="rgba(20, 112, 202, 1)" offset="0"></stop>
            <stop stop-color="rgba(95, 77, 188, 1)" offset="0.29"></stop>
            <stop stop-color="rgba(243, 89, 22, 1)" offset="0.81"></stop>
            <stop stop-color="rgba(254, 209, 72, 1)" offset="1"></stop>
        </linearGradient>
    </defs>
</svg>