<svg xmlns="http://www.w3.org/2000/svg" version="1.1" xmlns:xlink="http://www.w3.org/1999/xlink" xmlns:svgjs="http://svgjs.com/svgjs" width="375" height="670" preserveAspectRatio="none" viewBox="0 0 375 670">
    <g mask="url(&quot;#SvgjsMask1439&quot;)" fill="none">
        <rect width="375" height="670" x="0" y="0" fill="url(#SvgjsLinearGradient1440)"></rect>
        <path d="M252.29 519.8 a83.77 83.77 0 1 0 167.54 0 a83.77 83.77 0 1 0 -167.54 0z" fill="rgba(203, 203, 72, 0.17)" class="triangle-float3"></path>
        <path d="M252.72 165.96 a88.66 88.66 0 1 0 177.32 0 a88.66 88.66 0 1 0 -177.32 0z" fill="rgba(203, 203, 72, 0.17)" class="triangle-float2"></path>
        <path d="M80.02 355.99 a63.57 63.57 0 1 0 127.14 0 a63.57 63.57 0 1 0 -127.14 0z" fill="rgba(203, 203, 72, 0.17)" class="triangle-float3"></path>
        <path d="M-0.13 518.26 a82.57 82.57 0 1 0 165.14 0 a82.57 82.57 0 1 0 -165.14 0z" fill="rgba(203, 203, 72, 0.17)" class="triangle-float3"></path>
        <path d="M110.43 69.74 a121.51 121.51 0 1 0 243.02 0 a121.51 121.51 0 1 0 -243.02 0z" fill="rgba(203, 203, 72, 0.17)" class="triangle-float1"></path>
    </g>
    <defs>
        <mask id="SvgjsMask1439">
            <rect width="375" height="670" fill="#ffffff"></rect>
        </mask>
        <linearGradient x1="-19.67%" y1="11.01%" x2="119.67%" y2="88.99%" gradientUnits="userSpaceOnUse" id="SvgjsLinearGradient1440">
            <stop stop-color="rgba(20, 112, 202, 1)" offset="0"></stop>
            <stop stop-color="rgba(95, 77, 188, 1)" offset="0.29"></stop>
            <stop stop-color="rgba(243, 89, 22, 1)" offset="0.81"></stop>
            <stop stop-color="rgba(254, 209, 72, 1)" offset="1"></stop>
        </linearGradient>
        <style>
            @keyframes float1 {
                0%{transform: translate(0, 0)}
                50%{transform: translate(-10px, 0)}
                100%{transform: translate(0, 0)}
            }

            .triangle-float1 {
                animation: float1 5s infinite;
            }

            @keyframes float2 {
                0%{transform: translate(0, 0)}
                50%{transform: translate(-5px, -5px)}
                100%{transform: translate(0, 0)}
            }

            .triangle-float2 {
                animation: float2 4s infinite;
            }

            @keyframes float3 {
                0%{transform: translate(0, 0)}
                50%{transform: translate(0, -10px)}
                100%{transform: translate(0, 0)}
            }

            .triangle-float3 {
                animation: float3 6s infinite;
            }
        </style>
    </defs>
</svg>